ffmpeg version N-82167-g5e96558 Copyright (c) 2000-2016 the FFmpeg developers
  built with gcc 5.4.0 (Ubuntu 5.4.0-6ubuntu1~16.04.2) 20160609
  configuration: --prefix=/root/ffmpeg_build --pkg-config-flags=--static --extra-cflags=-I/root/ffmpeg_build/include --extra-ldflags=-L/root/ffmpeg_build/lib --bindir=/root/bin --enable-gpl --enable-libass --enable-libfdk-aac --enable-libfreetype --enable-libmp3lame --enable-libopus --enable-libtheora --enable-libvorbis --enable-libx264 --enable-libx265 --enable-nonfree
  libavutil      55. 35.100 / 55. 35.100
  libavcodec     57. 65.100 / 57. 65.100
  libavformat    57. 57.100 / 57. 57.100
  libavdevice    57.  2.100 / 57.  2.100
  libavfilter     6. 66.100 /  6. 66.100
  libswscale      4.  3.100 /  4.  3.100
  libswresample   2.  4.100 /  2.  4.100
  libpostproc    54.  2.100 / 54.  2.100
Input #0, matroska,webm, from '/media/yubikiri/bot/queue/3AnimePahe_Detective_Conan_-_044_720p_Fansub.mkv':
  Metadata:
    title           : 3|Text||0|0
    ENCODER         : Lavf57.57.100
  Duration: 00:24:25.63, start: 0.000000, bitrate: 950 kb/s
    Stream #0:0: Video: mpeg4 (Advanced Simple Profile), yuv420p, 640x480 [SAR 1:1 DAR 4:3], 23.98 fps, 23.98 tbr, 1k tbn, 23.98 tbc (default)
    Metadata:
      DURATION        : 00:24:25.633000000
    Stream #0:1: Audio: mp3, 48000 Hz, stereo, s16p, 128 kb/s (default)
    Metadata:
      DURATION        : 00:24:25.584000000
[libx264 @ 0x2459c20] using SAR=1/1
[libx264 @ 0x2459c20] using cpu capabilities: MMX2 SSE2Fast SSSE3 SSE4.2 AVX FMA3 AVX2 LZCNT BMI2
[libx264 @ 0x2459c20] profile High, level 3.1
[libx264 @ 0x2459c20] 264 - core 148 r2643 5c65704 - H.264/MPEG-4 AVC codec - Copyleft 2003-2015 - http://www.videolan.org/x264.html - options: cabac=1 ref=8 deblock=1:1:1 analyse=0x3:0x133 me=umh subme=7 psy=1 psy_rd=0.00:0.00 mixed_ref=1 me_range=8 chroma_me=1 trellis=0 8x8dct=1 cqm=0 deadzone=21,11 fast_pskip=1 chroma_qp_offset=0 threads=8 lookahead_threads=2 sliced_threads=0 nr=0 decimate=1 interlaced=0 bluray_compat=0 constrained_intra=0 bframes=3 b_pyramid=2 b_adapt=2 b_bias=0 direct=1 weightb=1 open_gop=0 weightp=2 keyint=240 keyint_min=24 scenecut=40 intra_refresh=0 rc_lookahead=60 rc=crf mbtree=1 crf=27.0 qcomp=0.60 qpmin=0 qpmax=69 qpstep=4 ip_ratio=1.40 aq=1:1.00
[libfdk_aac @ 0x23d7d20] Note, the VBR setting is unsupported and only works with some parameter combinations
Output #0, mp4, to '/media/yubikiri/bot/queue/3AnimePahe_Detective_Conan_-_044_720p_Fansub.mkv_encoded.mp4':
  Metadata:
    encoder         : Lavf57.57.100
    Stream #0:0: Video: h264 (libx264) ([33][0][0][0] / 0x0021), yuv420p, 640x480 [SAR 1:1 DAR 4:3], q=-1--1, 23.98 fps, 11988 tbn, 23.98 tbc (default)
    Metadata:
      encoder         : Lavc57.65.100 libx264
    Side data:
      cpb: bitrate max/min/avg: 0/0/0 buffer size: 0 vbv_delay: -1
    Stream #0:1: Audio: aac (libfdk_aac) (HE-AACv2) ([64][0][0][0] / 0x0040), 48000 Hz, stereo, s16, 48 kb/s (default)
    Metadata:
      encoder         : Lavc57.65.100 libfdk_aac
Stream mapping:
  Stream #0:0 -> #0:0 (mpeg4 (native) -> h264 (libx264))
  Stream #0:1 -> #0:1 (mp3 (native) -> aac (libfdk_aac))
Press [q] to stop, [?] for help
frame=  103 fps=0.0 q=32.0 size=      99kB time=00:00:04.45 bitrate= 181.1kbits/s dup=1 drop=0 speed=8.69x    frame=  155 fps=152 q=32.0 size=     262kB time=00:00:06.63 bitrate= 323.4kbits/s dup=1 drop=0 speed=6.49x    frame=  205 fps=132 q=32.0 size=     404kB time=00:00:08.72 bitrate= 379.6kbits/s dup=1 drop=0 speed=5.62x    frame=  262 fps=126 q=32.0 size=     588kB time=00:00:11.07 bitrate= 435.1kbits/s dup=1 drop=0 speed=5.31x    frame=  333 fps=127 q=32.0 size=     734kB time=00:00:14.05 bitrate= 427.7kbits/s dup=1 drop=0 speed=5.37x    frame=  412 fps=131 q=32.0 size=     867kB time=00:00:17.34 bitrate= 409.7kbits/s dup=1 drop=0 speed=5.53x    frame=  480 fps=132 q=32.0 size=    1024kB time=00:00:20.20 bitrate= 415.2kbits/s dup=1 drop=0 speed=5.55x    frame=  533 fps=128 q=32.0 size=    1150kB time=00:00:22.37 bitrate= 421.1kbits/s dup=1 drop=0 speed=5.38x    frame=  628 fps=135 q=32.0 size=    1289kB time=00:00:26.34 bitrate= 400.7kbits/s dup=1 drop=0 speed=5.65x    frame=  713 fps=138 q=32.0 size=    1414kB time=00:00:29.88 bitrate= 387.6kbits/s dup=1 drop=0 speed=5.79x    frame=  764 fps=134 q=32.0 size=    1573kB time=00:00:32.02 bitrate= 402.5kbits/s dup=1 drop=0 speed=5.63x    frame=  835 fps=135 q=32.0 size=    1706kB time=00:00:34.96 bitrate= 399.8kbits/s dup=1 drop=0 speed=5.65x    frame=  893 fps=134 q=32.0 size=    1811kB time=00:00:37.39 bitrate= 396.6kbits/s dup=1 drop=0 speed=5.59x    frame=  936 fps=130 q=32.0 size=    1909kB time=00:00:39.19 bitrate= 399.1kbits/s dup=1 drop=0 speed=5.45x    frame=  983 fps=128 q=32.0 size=    1984kB time=00:00:41.15 bitrate= 394.8kbits/s dup=1 drop=0 speed=5.34x    frame= 1029 fps=125 q=32.0 size=    2106kB time=00:00:43.07 bitrate= 400.4kbits/s dup=1 drop=0 speed=5.25x    frame= 1098 fps=126 q=32.0 size=    2215kB time=00:00:45.97 bitrate= 394.7kbits/s dup=1 drop=0 speed=5.28x    frame= 1166 fps=127 q=32.0 size=    2333kB time=00:00:48.79 bitrate= 391.7kbits/s dup=1 drop=0 speed=5.29x    frame= 1229 fps=126 q=32.0 size=    2443kB time=00:00:51.39 bitrate= 389.4kbits/s dup=1 drop=0 speed=5.27x    frame= 1274 fps=123 q=32.0 size=    2575kB time=00:00:53.31 bitrate= 395.6kbits/s dup=1 drop=0 speed=5.16x    frame= 1311 fps=121 q=32.0 size=    2695kB time=00:00:54.84 bitrate= 402.6kbits/s dup=1 drop=0 speed=5.05x    frame= 1341 fps=118 q=32.0 size=    2790kB time=00:00:56.08 bitrate= 407.5kbits/s dup=1 drop=0 speed=4.94x    frame= 1380 fps=116 q=32.0 size=    2931kB time=00:00:57.70 bitrate= 416.0kbits/s dup=1 drop=0 speed=4.86x    frame= 1420 fps=115 q=32.0 size=    3015kB time=00:00:59.37 bitrate= 415.9kbits/s dup=1 drop=0 speed= 4.8x    frame= 1462 fps=113 q=32.0 size=    3082kB time=00:01:01.12 bitrate= 413.1kbits/s dup=1 drop=0 speed=4.73x    frame= 1503 fps=112 q=32.0 size=    3214kB time=00:01:02.87 bitrate= 418.7kbits/s dup=1 drop=0 speed=4.67x    frame= 1551 fps=111 q=32.0 size=    3312kB time=00:01:04.83 bitrate= 418.4kbits/s dup=1 drop=0 speed=4.64x    frame= 1606 fps=111 q=32.0 size=    3441kB time=00:01:07.13 bitrate= 419.8kbits/s dup=1 drop=0 speed=4.63x    frame= 1651 fps=110 q=32.0 size=    3578kB time=00:01:09.01 bitrate= 424.8kbits/s dup=1 drop=0 speed= 4.6x    frame= 1686 fps=109 q=32.0 size=    3705kB time=00:01:10.50 bitrate= 430.4kbits/s dup=1 drop=0 speed=4.55x    frame= 1737 fps=109 q=32.0 size=    3800kB time=00:01:12.59 bitrate= 428.8kbits/s dup=1 drop=0 speed=4.54x    frame= 1773 fps=107 q=32.0 size=    3940kB time=00:01:14.09 bitrate= 435.6kbits/s dup=1 drop=0 speed=4.49x    frame= 1815 fps=106 q=32.0 size=    4044kB time=00:01:15.88 bitrate= 436.6kbits/s dup=1 drop=0 speed=4.45x    frame= 1862 fps=106 q=32.0 size=    4190kB time=00:01:17.84 bitrate= 440.9kbits/s dup=1 drop=0 speed=4.43x    frame= 1904 fps=105 q=32.0 size=    4294kB time=00:01:19.59 bitrate= 441.9kbits/s dup=1 drop=0 speed= 4.4x    frame= 1947 fps=105 q=32.0 size=    4405kB time=00:01:21.34 bitrate= 443.6kbits/s dup=1 drop=0 speed=4.38x    frame= 1989 fps=104 q=32.0 size=    4521kB time=00:01:23.09 bitrate= 445.7kbits/s dup=1 drop=0 speed=4.35x    frame= 2028 fps=104 q=32.0 size=    4625kB time=00:01:24.75 bitrate= 447.0kbits/s dup=1 drop=0 speed=4.33x    frame= 2076 fps=103 q=32.0 size=    4721kB time=00:01:26.72 bitrate= 445.9kbits/s dup=1 drop=0 speed=4.31x    frame= 2139 fps=104 q=32.0 size=    4821kB time=00:01:29.36 bitrate= 442.0kbits/s dup=1 drop=0 speed=4.33x    frame= 2214 fps=105 q=32.0 size=    4924kB time=00:01:32.52 bitrate= 436.0kbits/s dup=1 drop=0 speed=4.38x    frame= 2356 fps=109 q=32.0 size=    5032kB time=00:01:38.41 bitrate= 418.9kbits/s dup=1 drop=0 speed=4.55x    frame= 2426 fps=110 q=32.0 size=    5125kB time=00:01:41.35 bitrate= 414.2kbits/s dup=1 drop=0 speed=4.58x    frame= 2490 fps=110 q=32.0 size=    5236kB time=00:01:44.00 bitrate= 412.5kbits/s dup=1 drop=0 speed= 4.6x    frame= 2536 fps=110 q=32.0 size=    5329kB time=00:01:45.92 bitrate= 412.2kbits/s dup=1 drop=0 speed=4.58x    frame= 2596 fps=110 q=32.0 size=    5405kB time=00:01:48.43 bitrate= 408.3kbits/s dup=1 drop=0 speed=4.59x    frame= 2656 fps=110 q=32.0 size=    5485kB time=00:01:50.91 bitrate= 405.1kbits/s dup=1 drop=0 speed=4.59x    frame= 2710 fps=110 q=32.0 size=    5600kB time=00:01:53.17 bitrate= 405.3kbits/s dup=1 drop=0 speed=4.59x    frame= 2775 fps=110 q=32.0 size=    5716kB time=00:01:55.90 bitrate= 404.0kbits/s dup=1 drop=0 speed=4.61x    frame= 2846 fps=111 q=32.0 size=    5804kB time=00:01:58.89 bitrate= 399.9kbits/s dup=1 drop=0 speed=4.63x    frame= 2903 fps=111 q=32.0 size=    5932kB time=00:02:01.23 bitrate= 400.8kbits/s dup=1 drop=0 speed=4.63x    frame= 2979 fps=112 q=32.0 size=    6066kB time=00:02:04.39 bitrate= 399.5kbits/s dup=1 drop=0 speed=4.66x    frame= 3072 fps=113 q=32.0 size=    6176kB time=00:02:08.27 bitrate= 394.4kbits/s dup=1 drop=0 speed=4.72x    frame= 3172 fps=115 q=32.0 size=    6273kB time=00:02:12.45 bitrate= 388.0kbits/s dup=1 drop=0 speed=4.78x    frame= 3266 fps=116 q=32.0 size=    6354kB time=00:02:16.38 bitrate= 381.6kbits/s dup=1 drop=0 speed=4.84x    frame= 3353 fps=117 q=32.0 size=    6453kB time=00:02:20.01 bitrate= 377.6kbits/s dup=1 drop=0 speed=4.88x    frame= 3429 fps=117 q=32.0 size=    6557kB time=00:02:23.16 bitrate= 375.2kbits/s dup=1 drop=0 speed= 4.9x    frame= 3503 fps=118 q=32.0 size=    6687kB time=00:02:26.24 bitrate= 374.6kbits/s dup=1 drop=0 speed=4.92x    frame= 3559 fps=118 q=32.0 size=    6798kB time=00:02:28.58 bitrate= 374.8kbits/s dup=1 drop=0 speed=4.92x    frame= 3634 fps=118 q=32.0 size=    6877kB time=00:02:31.74 bitrate= 371.2kbits/s dup=1 drop=0 speed=4.94x    frame= 3679 fps=118 q=32.0 size=    6974kB time=00:02:33.57 bitrate= 372.0kbits/s dup=1 drop=0 speed=4.92x    frame= 3731 fps=118 q=32.0 size=    7088kB time=00:02:35.79 bitrate= 372.7kbits/s dup=1 drop=0 speed=4.91x    frame= 3773 fps=117 q=32.0 size=    7168kB time=00:02:37.54 bitrate= 372.7kbits/s dup=1 drop=0 speed=4.89x    frame= 3823 fps=117 q=32.0 size=    7283kB time=00:02:39.59 bitrate= 373.8kbits/s dup=1 drop=0 speed=4.87x    frame= 3883 fps=117 q=32.0 size=    7410kB time=00:02:42.11 bitrate= 374.5kbits/s dup=1 drop=0 speed=4.86x    frame= 3935 fps=116 q=32.0 size=    7513kB time=00:02:44.28 bitrate= 374.6kbits/s dup=1 drop=0 speed=4.86x    frame= 3997 fps=116 q=32.0 size=    7627kB time=00:02:46.89 bitrate= 374.4kbits/s dup=1 drop=0 speed=4.86x    frame= 4046 fps=116 q=32.0 size=    7726kB time=00:02:48.93 bitrate= 374.6kbits/s dup=1 drop=0 speed=4.85x    frame= 4087 fps=116 q=32.0 size=    7821kB time=00:02:50.60 bitrate= 375.5kbits/s dup=1 drop=0 speed=4.83x    frame= 4142 fps=116 q=32.0 size=    7916kB time=00:02:52.90 bitrate= 375.0kbits/s dup=1 drop=0 speed=4.82x    frame= 4185 fps=115 q=32.0 size=    8044kB time=00:02:54.69 bitrate= 377.2kbits/s dup=1 drop=0 speed=4.81x    frame= 4253 fps=115 q=32.0 size=    8118kB time=00:02:57.55 bitrate= 374.5kbits/s dup=1 drop=0 speed=4.82x    frame= 4320 fps=116 q=32.0 size=    8203kB time=00:03:00.33 bitrate= 372.6kbits/s dup=1 drop=0 speed=4.83x    frame= 4384 fps=116 q=32.0 size=    8291kB time=00:03:03.01 bitrate= 371.1kbits/s dup=1 drop=0 speed=4.83x    frame= 4455 fps=116 q=32.0 size=    8362kB time=00:03:05.96 bitrate= 368.3kbits/s dup=1 drop=0 speed=4.85x    frame= 4527 fps=116 q=32.0 size=    8471kB time=00:03:08.95 bitrate= 367.3kbits/s dup=1 drop=0 speed=4.86x    frame= 4615 fps=117 q=32.0 size=    8537kB time=00:03:12.66 bitrate= 363.0kbits/s dup=1 drop=0 speed=4.89x    frame= 4695 fps=118 q=32.0 size=    8654kB time=00:03:15.99 bitrate= 361.7kbits/s dup=1 drop=0 speed=4.91x    frame= 4786 fps=119 q=32.0 size=    8725kB time=00:03:19.78 bitrate= 357.7kbits/s dup=1 drop=0 speed=4.95x    frame= 4873 fps=119 q=32.0 size=    8822kB time=00:03:23.41 bitrate= 355.3kbits/s dup=1 drop=0 speed=4.98x    frame= 4961 fps=120 q=32.0 size=    8908kB time=00:03:27.08 bitrate= 352.4kbits/s dup=1 drop=0 speed=   5x    frame= 5036 fps=120 q=32.0 size=    9024kB time=00:03:30.19 bitrate= 351.7kbits/s dup=1 drop=0 speed=5.02x    frame= 5127 fps=121 q=32.0 size=    9106kB time=00:03:33.99 bitrate= 348.6kbits/s dup=1 drop=0 speed=5.05x    frame= 5228 fps=122 q=32.0 size=    9182kB time=00:03:38.21 bitrate= 344.7kbits/s dup=1 drop=0 speed=5.09x    frame= 5305 fps=122 q=32.0 size=    9297kB time=00:03:41.41 bitrate= 344.0kbits/s dup=1 drop=0 speed= 5.1x    frame= 5374 fps=122 q=32.0 size=    9385kB time=00:03:44.32 bitrate= 342.7kbits/s dup=1 drop=0 speed=5.11x    frame= 5427 fps=122 q=32.0 size=    9480kB time=00:03:46.49 bitrate= 342.9kbits/s dup=1 drop=0 speed= 5.1x    frame= 5476 fps=122 q=32.0 size=    9603kB time=00:03:48.54 bitrate= 344.2kbits/s dup=1 drop=0 speed=5.09x    frame= 5527 fps=122 q=32.0 size=    9704kB time=00:03:50.67 bitrate= 344.6kbits/s dup=1 drop=0 speed=5.08x    frame= 5610 fps=122 q=32.0 size=    9809kB time=00:03:54.13 bitrate= 343.2kbits/s dup=1 drop=0 speed= 5.1x    frame= 5648 fps=122 q=32.0 size=    9944kB time=00:03:55.71 bitrate= 345.6kbits/s dup=1 drop=0 speed=5.08x    frame= 5732 fps=122 q=32.0 size=   10044kB time=00:03:59.21 bitrate= 344.0kbits/s dup=1 drop=0 speed= 5.1x    frame= 5795 fps=122 q=32.0 size=   10096kB time=00:04:01.85 bitrate= 342.0kbits/s dup=1 drop=0 speed=5.09x    frame= 5871 fps=122 q=32.0 size=   10204kB time=00:04:05.05 bitrate= 341.1kbits/s dup=1 drop=0 speed= 5.1x    frame= 5935 fps=122 q=32.0 size=   10299kB time=00:04:07.70 bitrate= 340.6kbits/s dup=1 drop=0 speed= 5.1x    frame= 6022 fps=123 q=32.0 size=   10368kB time=00:04:11.37 bitrate= 337.9kbits/s dup=1 drop=0 speed=5.13x    frame= 6105 fps=123 q=32.0 size=   10509kB time=00:04:14.78 bitrate= 337.9kbits/s dup=1 drop=0 speed=5.14x    frame= 6169 fps=123 q=32.0 size=   10603kB time=00:04:17.43 bitrate= 337.4kbits/s dup=1 drop=0 speed=5.14x    frame= 6244 fps=123 q=32.0 size=   10683kB time=00:04:20.58 bitrate= 335.8kbits/s dup=1 drop=0 speed=5.15x    frame= 6327 fps=124 q=32.0 size=   10826kB time=00:04:24.04 bitrate= 335.9kbits/s dup=1 drop=0 speed=5.17x    frame= 6409 fps=124 q=32.0 size=   10921kB time=00:04:27.49 bitrate= 334.5kbits/s dup=1 drop=0 speed=5.19x    frame= 6483 fps=124 q=32.0 size=   11029kB time=00:04:30.57 bitrate= 333.9kbits/s dup=1 drop=0 speed=5.19x    frame= 6546 fps=124 q=32.0 size=   11125kB time=00:04:33.17 bitrate= 333.6kbits/s dup=1 drop=0 speed=5.19x    frame= 6621 fps=125 q=32.0 size=   11215kB time=00:04:36.33 bitrate= 332.5kbits/s dup=1 drop=0 speed= 5.2x    frame= 6708 fps=125 q=32.0 size=   11316kB time=00:04:39.91 bitrate= 331.2kbits/s dup=1 drop=0 speed=5.22x    frame= 6781 fps=125 q=32.0 size=   11449kB time=00:04:42.98 bitrate= 331.4kbits/s dup=1 drop=0 speed=5.23x    frame= 6834 fps=125 q=32.0 size=   11542kB time=00:04:45.20 bitrate= 331.5kbits/s dup=1 drop=0 speed=5.22x    frame= 6922 fps=126 q=32.0 size=   11631kB time=00:04:48.87 bitrate= 329.8kbits/s dup=1 drop=0 speed=5.24x    frame= 7004 fps=126 q=32.0 size=   11720kB time=00:04:52.28 bitrate= 328.5kbits/s dup=1 drop=0 speed=5.25x    frame= 7060 fps=126 q=29.0 size=   11848kB time=00:04:54.63 bitrate= 329.4kbits/s dup=1 drop=0 speed=5.25x    frame= 7137 fps=126 q=32.0 size=   11957kB time=00:04:57.83 bitrate= 328.9kbits/s dup=1 drop=0 speed=5.26x    frame= 7186 fps=126 q=32.0 size=   12033kB time=00:04:59.88 bitrate= 328.7kbits/s dup=1 drop=0 speed=5.25x    frame= 7234 fps=125 q=32.0 size=   12110kB time=00:05:01.88 bitrate= 328.6kbits/s dup=1 drop=0 speed=5.23x    frame= 7281 fps=125 q=32.0 size=   12184kB time=00:05:03.85 bitrate= 328.5kbits/s dup=1 drop=0 speed=5.22x    frame= 7324 fps=125 q=32.0 size=   12260kB time=00:05:05.64 bitrate= 328.6kbits/s dup=1 drop=0 speed=5.21x    frame= 7381 fps=125 q=32.0 size=   12335kB time=00:05:07.99 bitrate= 328.1kbits/s dup=1 drop=0 speed= 5.2x    frame= 7456 fps=125 q=32.0 size=   12442kB time=00:05:11.14 bitrate= 327.6kbits/s dup=1 drop=0 speed=5.21x    frame= 7514 fps=125 q=32.0 size=   12504kB time=00:05:13.57 bitrate= 326.6kbits/s dup=1 drop=0 speed=5.21x    frame= 7558 fps=124 q=32.0 size=   12594kB time=00:05:15.37 bitrate= 327.1kbits/s dup=1 drop=0 speed=5.19x    frame= 7598 fps=124 q=32.0 size=   12658kB time=00:05:17.07 bitrate= 327.0kbits/s dup=1 drop=0 speed=5.18x    frame= 7636 fps=124 q=32.0 size=   12722kB time=00:05:18.65 bitrate= 327.0kbits/s dup=1 drop=0 speed=5.16x    frame= 7678 fps=123 q=32.0 size=   12788kB time=00:05:20.40 bitrate= 326.9kbits/s dup=1 drop=0 speed=5.13x    frame= 7712 fps=122 q=32.0 size=   12882kB time=00:05:21.85 bitrate= 327.9kbits/s dup=1 drop=0 speed=5.11x    frame= 7756 fps=122 q=32.0 size=   13047kB time=00:05:23.64 bitrate= 330.2kbits/s dup=1 drop=0 speed= 5.1x    frame= 7812 fps=122 q=32.0 size=   13194kB time=00:05:25.99 bitrate= 331.5kbits/s dup=1 drop=0 speed=5.09x    frame= 7881 fps=122 q=32.0 size=   13293kB time=00:05:28.85 bitrate= 331.1kbits/s dup=1 drop=0 speed= 5.1x    frame= 7941 fps=122 q=32.0 size=   13383kB time=00:05:31.37 bitrate= 330.8kbits/s dup=1 drop=0 speed= 5.1x    frame= 8004 fps=122 q=32.0 size=   13458kB time=00:05:33.97 bitrate= 330.1kbits/s dup=1 drop=0 speed= 5.1x    frame= 8056 fps=122 q=32.0 size=   13541kB time=00:05:36.15 bitrate= 330.0kbits/s dup=1 drop=0 speed=5.09x    frame= 8131 fps=122 q=32.0 size=   13651kB time=00:05:39.26 bitrate= 329.6kbits/s dup=1 drop=0 speed= 5.1x    frame= 8218 fps=123 q=32.0 size=   13770kB time=00:05:42.89 bitrate= 329.0kbits/s dup=1 drop=0 speed=5.12x    frame= 8312 fps=123 q=32.0 size=   13881kB time=00:05:46.81 bitrate= 327.9kbits/s dup=1 drop=0 speed=5.14x    frame= 8405 fps=124 q=32.0 size=   13955kB time=00:05:50.69 bitrate= 326.0kbits/s dup=1 drop=0 speed=5.15x    frame= 8479 fps=124 q=32.0 size=   14085kB time=00:05:53.81 bitrate= 326.1kbits/s dup=1 drop=0 speed=5.16x    frame= 8577 fps=124 q=32.0 size=   14203kB time=00:05:57.86 bitrate= 325.1kbits/s dup=1 drop=0 speed=5.18x    frame= 8640 fps=124 q=32.0 size=   14301kB time=00:06:00.51 bitrate= 325.0kbits/s dup=1 drop=0 speed=5.18x    frame= 8715 fps=124 q=32.0 size=   14426kB time=00:06:03.62 bitrate= 325.0kbits/s dup=1 drop=0 speed=5.19x    frame= 8780 fps=124 q=32.0 size=   14507kB time=00:06:06.40 bitrate= 324.3kbits/s dup=1 drop=0 speed=5.19x    frame= 8857 fps=125 q=32.0 size=   14604kB time=00:06:09.55 bitrate= 323.7kbits/s dup=1 drop=0 speed= 5.2x    frame= 8943 fps=125 q=32.0 size=   14679kB time=00:06:13.14 bitrate= 322.3kbits/s dup=1 drop=0 speed=5.22x    frame= 9005 fps=125 q=32.0 size=   14767kB time=00:06:15.74 bitrate= 321.9kbits/s dup=1 drop=0 speed=5.22x    frame= 9050 fps=125 q=32.0 size=   14843kB time=00:06:17.62 bitrate= 322.0kbits/s dup=1 drop=0 speed= 5.2x    frame= 9133 fps=125 q=32.0 size=   14935kB time=00:06:21.07 bitrate= 321.0kbits/s dup=1 drop=0 speed=5.22x    frame= 9175 fps=125 q=32.0 size=   14977kB time=00:06:22.82 bitrate= 320.5kbits/s dup=1 drop=0 speed= 5.2x    frame= 9233 fps=125 q=32.0 size=   15059kB time=00:06:25.25 bitrate= 320.2kbits/s dup=1 drop=0 speed= 5.2x    frame= 9293 fps=125 q=32.0 size=   15128kB time=00:06:27.73 bitrate= 319.6kbits/s dup=1 drop=0 speed= 5.2x    frame= 9352 fps=125 q=32.0 size=   15250kB time=00:06:30.20 bitrate= 320.2kbits/s dup=1 drop=0 speed= 5.2x    frame= 9409 fps=124 q=32.0 size=   15356kB time=00:06:32.59 bitrate= 320.4kbits/s dup=1 drop=0 speed=5.19x    frame= 9470 fps=124 q=32.0 size=   15445kB time=00:06:35.15 bitrate= 320.2kbits/s dup=1 drop=0 speed=5.19x    frame= 9503 fps=124 q=32.0 size=   15525kB time=00:06:36.52 bitrate= 320.7kbits/s dup=1 drop=0 speed=5.18x    frame= 9541 fps=124 q=32.0 size=   15638kB time=00:06:38.10 bitrate= 321.8kbits/s dup=1 drop=0 speed=5.16x    frame= 9602 fps=124 q=32.0 size=   15755kB time=00:06:40.61 bitrate= 322.2kbits/s dup=1 drop=0 speed=5.16x    frame= 9642 fps=123 q=32.0 size=   15843kB time=00:06:42.32 bitrate= 322.6kbits/s dup=1 drop=0 speed=5.15x    frame= 9685 fps=123 q=32.0 size=   15955kB time=00:06:44.11 bitrate= 323.4kbits/s dup=1 drop=0 speed=5.14x    frame= 9752 fps=123 q=32.0 size=   16076kB time=00:06:46.89 bitrate= 323.7kbits/s dup=1 drop=0 speed=5.14x    frame= 9834 fps=123 q=32.0 size=   16180kB time=00:06:50.34 bitrate= 323.0kbits/s dup=1 drop=0 speed=5.15x    frame= 9914 fps=124 q=32.0 size=   16261kB time=00:06:53.67 bitrate= 322.0kbits/s dup=1 drop=0 speed=5.16x    frame= 9983 fps=124 q=32.0 size=   16375kB time=00:06:56.53 bitrate= 322.0kbits/s dup=1 drop=0 speed=5.16x    frame=10051 fps=124 q=32.0 size=   16482kB time=00:06:59.39 bitrate= 321.9kbits/s dup=1 drop=0 speed=5.17x    frame=10134 fps=124 q=32.0 size=   16565kB time=00:07:02.84 bitrate= 320.9kbits/s dup=1 drop=0 speed=5.18x    frame=10230 fps=125 q=32.0 size=   16660kB time=00:07:06.85 bitrate= 319.7kbits/s dup=1 drop=0 speed= 5.2x    frame=10324 fps=125 q=32.0 size=   16787kB time=00:07:10.74 bitrate= 319.3kbits/s dup=1 drop=0 speed=5.21x    frame=10408 fps=125 q=32.0 size=   16882kB time=00:07:14.24 bitrate= 318.5kbits/s dup=1 drop=0 speed=5.22x    frame=10478 fps=125 q=32.0 size=   16969kB time=00:07:17.18 bitrate= 318.0kbits/s dup=1 drop=0 speed=5.22x    frame=10529 fps=125 q=32.0 size=   17113kB time=00:07:19.27 bitrate= 319.1kbits/s dup=1 drop=0 speed=5.22x    frame=10589 fps=125 q=32.0 size=   17215kB time=00:07:21.79 bitrate= 319.2kbits/s dup=1 drop=0 speed=5.22x    frame=10692 fps=125 q=32.0 size=   17337kB time=00:07:26.10 bitrate= 318.4kbits/s dup=1 drop=0 speed=5.24x    frame=10824 fps=126 q=32.0 size=   17448kB time=00:07:31.64 bitrate= 316.5kbits/s dup=1 drop=0 speed=5.27x    frame=10924 fps=127 q=32.0 size=   17539kB time=00:07:35.78 bitrate= 315.2kbits/s dup=1 drop=0 speed=5.29x    frame=11013 fps=127 q=32.0 size=   17657kB time=00:07:39.49 bitrate= 314.8kbits/s dup=1 drop=0 speed= 5.3x    frame=11079 fps=127 q=32.0 size=   17775kB time=00:07:42.23 bitrate= 315.0kbits/s dup=1 drop=0 speed= 5.3x    frame=11141 fps=127 q=32.0 size=   17909kB time=00:07:44.83 bitrate= 315.6kbits/s dup=1 drop=0 speed= 5.3x    frame=11200 fps=127 q=32.0 size=   17999kB time=00:07:47.30 bitrate= 315.5kbits/s dup=1 drop=0 speed=5.29x    frame=11269 fps=127 q=32.0 size=   18103kB time=00:07:50.16 bitrate= 315.4kbits/s dup=1 drop=0 speed= 5.3x    frame=11381 fps=127 q=32.0 size=   18186kB time=00:07:54.85 bitrate= 313.7kbits/s dup=1 drop=0 speed=5.32x    frame=11477 fps=128 q=32.0 size=   18275kB time=00:07:58.82 bitrate= 312.7kbits/s dup=1 drop=0 speed=5.33x    frame=11585 fps=128 q=32.0 size=   18402kB time=00:08:03.35 bitrate= 311.9kbits/s dup=1 drop=0 speed=5.35x    frame=11689 fps=129 q=32.0 size=   18525kB time=00:08:07.65 bitrate= 311.2kbits/s dup=1 drop=0 speed=5.37x    frame=11774 fps=129 q=32.0 size=   18627kB time=00:08:11.24 bitrate= 310.6kbits/s dup=1 drop=0 speed=5.38x    frame=11884 fps=129 q=32.0 size=   18718kB time=00:08:15.80 bitrate= 309.3kbits/s dup=1 drop=0 speed= 5.4x    frame=12009 fps=130 q=32.0 size=   18830kB time=00:08:21.01 bitrate= 307.9kbits/s dup=1 drop=0 speed=5.43x    frame=12100 fps=130 q=32.0 size=   18963kB time=00:08:24.85 bitrate= 307.7kbits/s dup=1 drop=0 speed=5.44x    frame=12141 fps=130 q=32.0 size=   19051kB time=00:08:26.56 bitrate= 308.1kbits/s dup=1 drop=0 speed=5.42x    frame=12212 fps=130 q=32.0 size=   19148kB time=00:08:29.50 bitrate= 307.9kbits/s dup=1 drop=0 speed=5.42x    frame=12289 fps=130 q=32.0 size=   19275kB time=00:08:32.70 bitrate= 308.0kbits/s dup=1 drop=0 speed=5.43x    frame=12355 fps=130 q=32.0 size=   19370kB time=00:08:35.47 bitrate= 307.8kbits/s dup=1 drop=0 speed=5.43x    frame=12405 fps=130 q=32.0 size=   19441kB time=00:08:37.56 bitrate= 307.7kbits/s dup=1 drop=0 speed=5.42x    frame=12471 fps=130 q=32.0 size=   19529kB time=00:08:40.29 bitrate= 307.5kbits/s dup=1 drop=0 speed=5.42x    frame=12560 fps=130 q=32.0 size=   19594kB time=00:08:44.01 bitrate= 306.3kbits/s dup=1 drop=0 speed=5.43x    frame=12637 fps=130 q=32.0 size=   19694kB time=00:08:47.21 bitrate= 306.0kbits/s dup=1 drop=0 speed=5.44x    frame=12727 fps=131 q=32.0 size=   19793kB time=00:08:50.96 bitrate= 305.4kbits/s dup=1 drop=0 speed=5.45x    frame=12823 fps=131 q=32.0 size=   19904kB time=00:08:54.97 bitrate= 304.8kbits/s dup=1 drop=0 speed=5.46x    frame=12901 fps=131 q=32.0 size=   20011kB time=00:08:58.26 bitrate= 304.6kbits/s dup=1 drop=0 speed=5.47x    frame=12992 fps=131 q=32.0 size=   20095kB time=00:09:02.01 bitrate= 303.7kbits/s dup=1 drop=0 speed=5.48x    frame=13091 fps=132 q=32.0 size=   20176kB time=00:09:06.15 bitrate= 302.6kbits/s dup=1 drop=0 speed=5.49x    frame=13166 fps=132 q=32.0 size=   20300kB time=00:09:09.27 bitrate= 302.8kbits/s dup=1 drop=0 speed=5.49x    frame=13232 fps=132 q=32.0 size=   20370kB time=00:09:12.04 bitrate= 302.3kbits/s dup=1 drop=0 speed=5.49x    frame=13316 fps=132 q=32.0 size=   20468kB time=00:09:15.54 bitrate= 301.8kbits/s dup=1 drop=0 speed= 5.5x    frame=13390 fps=132 q=32.0 size=   20589kB time=00:09:18.61 bitrate= 301.9kbits/s dup=1 drop=0 speed= 5.5x    frame=13452 fps=132 q=32.0 size=   20705kB time=00:09:21.21 bitrate= 302.2kbits/s dup=1 drop=0 speed= 5.5x    frame=13517 fps=132 q=32.0 size=   20777kB time=00:09:23.94 bitrate= 301.8kbits/s dup=1 drop=0 speed= 5.5x    frame=13591 fps=132 q=32.0 size=   20862kB time=00:09:27.01 bitrate= 301.4kbits/s dup=1 drop=0 speed= 5.5x    frame=13670 fps=132 q=32.0 size=   20961kB time=00:09:30.30 bitrate= 301.1kbits/s dup=1 drop=0 speed=5.51x    frame=13755 fps=132 q=32.0 size=   21028kB time=00:09:33.84 bitrate= 300.2kbits/s dup=1 drop=0 speed=5.52x    frame=13820 fps=132 q=32.0 size=   21135kB time=00:09:36.57 bitrate= 300.3kbits/s dup=1 drop=0 speed=5.52x    frame=13883 fps=132 q=32.0 size=   21228kB time=00:09:39.17 bitrate= 300.3kbits/s dup=1 drop=0 speed=5.51x    frame=13941 fps=132 q=32.0 size=   21338kB time=00:09:41.61 bitrate= 300.5kbits/s dup=1 drop=0 speed=5.51x    frame=13992 fps=132 q=32.0 size=   21425kB time=00:09:43.74 bitrate= 300.7kbits/s dup=1 drop=0 speed= 5.5x    frame=14060 fps=132 q=32.0 size=   21497kB time=00:09:46.60 bitrate= 300.2kbits/s dup=1 drop=0 speed=5.51x    frame=14141 fps=132 q=32.0 size=   21605kB time=00:09:49.97 bitrate= 300.0kbits/s dup=1 drop=0 speed=5.51x    frame=14199 fps=132 q=32.0 size=   21750kB time=00:09:52.36 bitrate= 300.8kbits/s dup=1 drop=0 speed=5.51x    frame=14285 fps=132 q=32.0 size=   21889kB time=00:09:55.99 bitrate= 300.9kbits/s dup=1 drop=0 speed=5.51x    frame=14375 fps=132 q=32.0 size=   22006kB time=00:09:59.70 bitrate= 300.6kbits/s dup=1 drop=0 speed=5.52x    frame=14479 fps=133 q=32.0 size=   22098kB time=00:10:04.05 bitrate= 299.7kbits/s dup=1 drop=0 speed=5.54x    frame=14544 fps=133 q=32.0 size=   22231kB time=00:10:06.78 bitrate= 300.1kbits/s dup=1 drop=0 speed=5.54x    frame=14625 fps=133 q=32.0 size=   22357kB time=00:10:10.15 bitrate= 300.2kbits/s dup=1 drop=0 speed=5.54x    frame=14706 fps=133 q=32.0 size=   22448kB time=00:10:13.52 bitrate= 299.7kbits/s dup=1 drop=0 speed=5.55x    frame=14791 fps=133 q=32.0 size=   22557kB time=00:10:17.06 bitrate= 299.5kbits/s dup=1 drop=0 speed=5.55x    frame=14887 fps=133 q=32.0 size=   22632kB time=00:10:21.07 bitrate= 298.5kbits/s dup=1 drop=0 speed=5.56x    frame=14962 fps=133 q=32.0 size=   22760kB time=00:10:24.15 bitrate= 298.7kbits/s dup=1 drop=0 speed=5.56x    frame=15044 fps=134 q=32.0 size=   22861kB time=00:10:27.60 bitrate= 298.4kbits/s dup=1 drop=0 speed=5.57x    frame=15141 fps=134 q=32.0 size=   22951kB time=00:10:31.61 bitrate= 297.7kbits/s dup=1 drop=0 speed=5.58x    frame=15222 fps=134 q=32.0 size=   23042kB time=00:10:35.03 bitrate= 297.2kbits/s dup=1 drop=0 speed=5.59x    frame=15308 fps=134 q=32.0 size=   23146kB time=00:10:38.61 bitrate= 296.9kbits/s dup=1 drop=0 speed=5.59x    frame=15396 fps=134 q=32.0 size=   23224kB time=00:10:42.32 bitrate= 296.2kbits/s dup=1 drop=0 speed= 5.6x    frame=15508 fps=135 q=32.0 size=   23307kB time=00:10:46.97 bitrate= 295.1kbits/s dup=1 drop=0 speed=5.62x    frame=15622 fps=135 q=32.0 size=   23399kB time=00:10:51.71 bitrate= 294.1kbits/s dup=1 drop=0 speed=5.63x    frame=15729 fps=135 q=32.0 size=   23478kB time=00:10:56.19 bitrate= 293.1kbits/s dup=1 drop=0 speed=5.65x    frame=15833 fps=136 q=32.0 size=   23548kB time=00:11:00.54 bitrate= 292.0kbits/s dup=1 drop=0 speed=5.66x    frame=15919 fps=136 q=32.0 size=   23625kB time=00:11:04.08 bitrate= 291.4kbits/s dup=1 drop=0 speed=5.66x    frame=15976 fps=136 q=32.0 size=   23702kB time=00:11:06.51 bitrate= 291.3kbits/s dup=1 drop=0 speed=5.66x    frame=16043 fps=136 q=32.0 size=   23766kB time=00:11:09.29 bitrate= 290.9kbits/s dup=1 drop=0 speed=5.66x    frame=16119 fps=136 q=32.0 size=   23829kB time=00:11:12.44 bitrate= 290.3kbits/s dup=1 drop=0 speed=5.66x    frame=16178 fps=136 q=32.0 size=   23920kB time=00:11:14.92 bitrate= 290.3kbits/s dup=1 drop=0 speed=5.66x    frame=16229 fps=135 q=32.0 size=   23994kB time=00:11:17.05 bitrate= 290.3kbits/s dup=1 drop=0 speed=5.65x    frame=16283 fps=135 q=32.0 size=   24065kB time=00:11:19.27 bitrate= 290.2kbits/s dup=1 drop=0 speed=5.65x    frame=16347 fps=135 q=32.0 size=   24142kB time=00:11:21.96 bitrate= 290.0kbits/s dup=1 drop=0 speed=5.65x    frame=16412 fps=135 q=32.0 size=   24243kB time=00:11:24.65 bitrate= 290.1kbits/s dup=1 drop=0 speed=5.64x    frame=16463 fps=135 q=32.0 size=   24322kB time=00:11:26.82 bitrate= 290.1kbits/s dup=1 drop=0 speed=5.64x    frame=16524 fps=135 q=32.0 size=   24429kB time=00:11:29.34 bitrate= 290.3kbits/s dup=1 drop=0 speed=5.64x    frame=16631 fps=135 q=32.0 size=   24545kB time=00:11:33.82 bitrate= 289.8kbits/s dup=1 drop=0 speed=5.65x    frame=16742 fps=136 q=32.0 size=   24674kB time=00:11:38.43 bitrate= 289.4kbits/s dup=1 drop=0 speed=5.66x    frame=16828 fps=136 q=32.0 size=   24764kB time=00:11:42.01 bitrate= 289.0kbits/s dup=1 drop=0 speed=5.67x    frame=16974 fps=137 q=32.0 size=   24863kB time=00:11:48.11 bitrate= 287.6kbits/s dup=1 drop=0 speed= 5.7x    frame=17058 fps=137 q=32.0 size=   24988kB time=00:11:51.61 bitrate= 287.7kbits/s dup=1 drop=0 speed= 5.7x    frame=17133 fps=137 q=32.0 size=   25092kB time=00:11:54.73 bitrate= 287.6kbits/s dup=1 drop=0 speed= 5.7x    frame=17234 fps=137 q=32.0 size=   25223kB time=00:11:58.95 bitrate= 287.4kbits/s dup=1 drop=0 speed=5.71x    frame=17301 fps=137 q=29.0 size=   25332kB time=00:12:01.77 bitrate= 287.5kbits/s dup=1 drop=0 speed=5.71x    frame=17365 fps=137 q=32.0 size=   25457kB time=00:12:04.41 bitrate= 287.9kbits/s dup=1 drop=0 speed=5.71x    frame=17440 fps=137 q=32.0 size=   25543kB time=00:12:07.57 bitrate= 287.6kbits/s dup=1 drop=0 speed=5.71x    frame=17514 fps=137 q=32.0 size=   25637kB time=00:12:10.64 bitrate= 287.4kbits/s dup=1 drop=0 speed=5.72x    frame=17577 fps=137 q=32.0 size=   25751kB time=00:12:13.29 bitrate= 287.7kbits/s dup=1 drop=0 speed=5.71x    frame=17649 fps=137 q=32.0 size=   25870kB time=00:12:16.27 bitrate= 287.8kbits/s dup=1 drop=0 speed=5.71x    frame=17726 fps=137 q=32.0 size=   25992kB time=00:12:19.47 bitrate= 287.9kbits/s dup=1 drop=0 speed=5.71x    frame=17779 fps=137 q=32.0 size=   26083kB time=00:12:21.69 bitrate= 288.1kbits/s dup=1 drop=0 speed=5.71x    frame=17848 fps=137 q=32.0 size=   26178kB time=00:12:24.55 bitrate= 288.0kbits/s dup=1 drop=0 speed=5.71x    frame=17934 fps=137 q=32.0 size=   26290kB time=00:12:28.13 bitrate= 287.9kbits/s dup=1 drop=0 speed=5.71x    frame=18033 fps=137 q=32.0 size=   26367kB time=00:12:32.27 bitrate= 287.1kbits/s dup=1 drop=0 speed=5.72x    frame=18127 fps=137 q=32.0 size=   26488kB time=00:12:36.20 bitrate= 286.9kbits/s dup=1 drop=0 speed=5.73x    frame=18227 fps=138 q=32.0 size=   26573kB time=00:12:40.38 bitrate= 286.3kbits/s dup=1 drop=0 speed=5.74x    frame=18314 fps=138 q=32.0 size=   26689kB time=00:12:44.01 bitrate= 286.2kbits/s dup=1 drop=0 speed=5.75x    frame=18406 fps=138 q=32.0 size=   26785kB time=00:12:47.80 bitrate= 285.8kbits/s dup=1 drop=0 speed=5.75x    frame=18502 fps=138 q=32.0 size=   26881kB time=00:12:51.81 bitrate= 285.3kbits/s dup=1 drop=0 speed=5.76x    frame=18589 fps=138 q=32.0 size=   26969kB time=00:12:55.48 bitrate= 284.9kbits/s dup=1 drop=0 speed=5.77x    frame=18673 fps=138 q=32.0 size=   27053kB time=00:12:58.98 bitrate= 284.5kbits/s dup=1 drop=0 speed=5.77x    frame=18769 fps=139 q=32.0 size=   27135kB time=00:13:02.95 bitrate= 283.9kbits/s dup=1 drop=0 speed=5.78x    frame=18863 fps=139 q=32.0 size=   27247kB time=00:13:06.92 bitrate= 283.6kbits/s dup=1 drop=0 speed=5.79x    frame=18963 fps=139 q=32.0 size=   27330kB time=00:13:11.10 bitrate= 283.0kbits/s dup=1 drop=0 speed= 5.8x    frame=19062 fps=139 q=32.0 size=   27399kB time=00:13:15.20 bitrate= 282.3kbits/s dup=1 drop=0 speed= 5.8x    frame=19133 fps=139 q=32.0 size=   27516kB time=00:13:18.18 bitrate= 282.4kbits/s dup=1 drop=0 speed=5.81x    frame=19194 fps=139 q=32.0 size=   27647kB time=00:13:20.70 bitrate= 282.9kbits/s dup=1 drop=0 speed= 5.8x    frame=19247 fps=139 q=32.0 size=   27729kB time=00:13:22.92 bitrate= 282.9kbits/s dup=1 drop=0 speed= 5.8x    frame=19307 fps=139 q=32.0 size=   27787kB time=00:13:25.39 bitrate= 282.6kbits/s dup=1 drop=0 speed=5.79x    frame=19356 fps=139 q=32.0 size=   27838kB time=00:13:27.44 bitrate= 282.4kbits/s dup=1 drop=0 speed=5.79x    frame=19414 fps=139 q=32.0 size=   27912kB time=00:13:29.87 bitrate= 282.3kbits/s dup=1 drop=0 speed=5.78x    frame=19467 fps=139 q=32.0 size=   28008kB time=00:13:32.09 bitrate= 282.5kbits/s dup=1 drop=0 speed=5.78x    frame=19553 fps=139 q=32.0 size=   28078kB time=00:13:35.68 bitrate= 282.0kbits/s dup=1 drop=0 speed=5.78x    frame=19653 fps=139 q=32.0 size=   28135kB time=00:13:39.86 bitrate= 281.1kbits/s dup=1 drop=0 speed=5.79x    frame=19709 fps=139 q=32.0 size=   28215kB time=00:13:42.20 bitrate= 281.1kbits/s dup=1 drop=0 speed=5.79x    frame=19751 fps=139 q=32.0 size=   28280kB time=00:13:43.95 bitrate= 281.2kbits/s dup=1 drop=0 speed=5.78x    frame=19812 fps=138 q=32.0 size=   28369kB time=00:13:46.47 bitrate= 281.2kbits/s dup=1 drop=0 speed=5.77x    frame=19891 fps=138 q=32.0 size=   28437kB time=00:13:49.76 bitrate= 280.8kbits/s dup=1 drop=0 speed=5.78x    frame=19940 fps=138 q=32.0 size=   28510kB time=00:13:51.80 bitrate= 280.8kbits/s dup=1 drop=0 speed=5.77x    frame=20032 fps=138 q=32.0 size=   28627kB time=00:13:55.64 bitrate= 280.6kbits/s dup=1 drop=0 speed=5.78x    frame=20134 fps=139 q=32.0 size=   28735kB time=00:13:59.91 bitrate= 280.3kbits/s dup=1 drop=0 speed=5.79x    frame=20257 fps=139 q=32.0 size=   28850kB time=00:14:05.03 bitrate= 279.7kbits/s dup=1 drop=0 speed= 5.8x    frame=20387 fps=139 q=32.0 size=   28954kB time=00:14:10.45 bitrate= 278.9kbits/s dup=1 drop=0 speed=5.82x    frame=20504 fps=140 q=32.0 size=   29085kB time=00:14:15.31 bitrate= 278.6kbits/s dup=1 drop=0 speed=5.83x    frame=20604 fps=140 q=32.0 size=   29171kB time=00:14:19.49 bitrate= 278.0kbits/s dup=1 drop=0 speed=5.84x    frame=20717 fps=140 q=32.0 size=   29264kB time=00:14:24.23 bitrate= 277.4kbits/s dup=1 drop=0 speed=5.85x    frame=20858 fps=141 q=32.0 size=   29365kB time=00:14:30.12 bitrate= 276.5kbits/s dup=1 drop=0 speed=5.87x    frame=20962 fps=141 q=32.0 size=   29494kB time=00:14:34.43 bitrate= 276.3kbits/s dup=1 drop=0 speed=5.88x    frame=21099 fps=141 q=32.0 size=   29590kB time=00:14:40.19 bitrate= 275.4kbits/s dup=1 drop=0 speed= 5.9x    frame=21210 fps=142 q=32.0 size=   29728kB time=00:14:44.80 bitrate= 275.2kbits/s dup=1 drop=0 speed=5.91x    frame=21288 fps=142 q=32.0 size=   29852kB time=00:14:48.04 bitrate= 275.4kbits/s dup=1 drop=0 speed=5.91x    frame=21373 fps=142 q=32.0 size=   29928kB time=00:14:51.58 bitrate= 275.0kbits/s dup=1 drop=0 speed=5.92x    frame=21443 fps=142 q=32.0 size=   30028kB time=00:14:54.48 bitrate= 275.0kbits/s dup=1 drop=0 speed=5.91x    frame=21500 fps=142 q=32.0 size=   30144kB time=00:14:56.87 bitrate= 275.3kbits/s dup=1 drop=0 speed=5.91x    frame=21561 fps=142 q=32.0 size=   30236kB time=00:14:59.43 bitrate= 275.4kbits/s dup=1 drop=0 speed=5.91x    frame=21617 fps=142 q=32.0 size=   30356kB time=00:15:01.78 bitrate= 275.8kbits/s dup=1 drop=0 speed= 5.9x    frame=21688 fps=142 q=32.0 size=   30450kB time=00:15:04.76 bitrate= 275.7kbits/s dup=1 drop=0 speed= 5.9x    frame=21756 fps=142 q=32.0 size=   30540kB time=00:15:07.54 bitrate= 275.7kbits/s dup=1 drop=0 speed= 5.9x    frame=21850 fps=142 q=32.0 size=   30624kB time=00:15:11.51 bitrate= 275.2kbits/s dup=1 drop=0 speed=5.91x    frame=21920 fps=142 q=32.0 size=   30698kB time=00:15:14.41 bitrate= 275.0kbits/s dup=1 drop=0 speed=5.91x    frame=22021 fps=142 q=32.0 size=   30778kB time=00:15:18.63 bitrate= 274.5kbits/s dup=1 drop=0 speed=5.92x    frame=22120 fps=142 q=32.0 size=   30893kB time=00:15:22.73 bitrate= 274.3kbits/s dup=1 drop=0 speed=5.92x    frame=22220 fps=142 q=32.0 size=   30970kB time=00:15:26.91 bitrate= 273.7kbits/s dup=1 drop=0 speed=5.93x    frame=22306 fps=142 q=32.0 size=   31093kB time=00:15:30.49 bitrate= 273.7kbits/s dup=1 drop=0 speed=5.93x    frame=22393 fps=142 q=32.0 size=   31182kB time=00:15:34.12 bitrate= 273.5kbits/s dup=1 drop=0 speed=5.94x    frame=22463 fps=142 q=32.0 size=   31250kB time=00:15:37.06 bitrate= 273.2kbits/s dup=1 drop=0 speed=5.94x    frame=22545 fps=142 q=32.0 size=   31353kB time=00:15:40.43 bitrate= 273.1kbits/s dup=1 drop=0 speed=5.94x    frame=22635 fps=143 q=32.0 size=   31417kB time=00:15:44.23 bitrate= 272.6kbits/s dup=1 drop=0 speed=5.95x    frame=22706 fps=143 q=32.0 size=   31503kB time=00:15:47.17 bitrate= 272.5kbits/s dup=1 drop=0 speed=5.95x    frame=22770 fps=142 q=32.0 size=   31561kB time=00:15:49.82 bitrate= 272.2kbits/s dup=1 drop=0 speed=5.94x    frame=22828 fps=142 q=32.0 size=   31665kB time=00:15:52.25 bitrate= 272.4kbits/s dup=1 drop=0 speed=5.94x    frame=22885 fps=142 q=32.0 size=   31738kB time=00:15:54.68 bitrate= 272.3kbits/s dup=1 drop=0 speed=5.94x    frame=22961 fps=142 q=32.0 size=   31848kB time=00:15:57.80 bitrate= 272.4kbits/s dup=1 drop=0 speed=5.94x    frame=23002 fps=142 q=32.0 size=   31924kB time=00:15:59.55 bitrate= 272.5kbits/s dup=1 drop=0 speed=5.93x    frame=23053 fps=142 q=32.0 size=   32004kB time=00:16:01.64 bitrate= 272.6kbits/s dup=1 drop=0 speed=5.92x    frame=23114 fps=142 q=32.0 size=   32083kB time=00:16:04.20 bitrate= 272.6kbits/s dup=1 drop=0 speed=5.92x    frame=23175 fps=142 q=32.0 size=   32135kB time=00:16:06.76 bitrate= 272.3kbits/s dup=1 drop=0 speed=5.92x    frame=23250 fps=142 q=32.0 size=   32212kB time=00:16:09.87 bitrate= 272.1kbits/s dup=1 drop=0 speed=5.92x    frame=23363 fps=142 q=32.0 size=   32264kB time=00:16:14.57 bitrate= 271.2kbits/s dup=1 drop=0 speed=5.93x    frame=23453 fps=142 q=32.0 size=   32335kB time=00:16:18.32 bitrate= 270.8kbits/s dup=1 drop=0 speed=5.93x    frame=23596 fps=143 q=32.0 size=   32395kB time=00:16:24.29 bitrate= 269.6kbits/s dup=1 drop=0 speed=5.95x    frame=23697 fps=143 q=32.0 size=   32481kB time=00:16:28.52 bitrate= 269.2kbits/s dup=1 drop=0 speed=5.96x    frame=23781 fps=143 q=32.0 size=   32561kB time=00:16:32.02 bitrate= 268.9kbits/s dup=1 drop=0 speed=5.96x    frame=23852 fps=143 q=32.0 size=   32626kB time=00:16:35.00 bitrate= 268.6kbits/s dup=1 drop=0 speed=5.96x    frame=23925 fps=143 q=32.0 size=   32712kB time=00:16:38.03 bitrate= 268.5kbits/s dup=1 drop=0 speed=5.96x    frame=23998 fps=143 q=32.0 size=   32816kB time=00:16:41.06 bitrate= 268.5kbits/s dup=1 drop=0 speed=5.96x    frame=24069 fps=143 q=32.0 size=   32973kB time=00:16:44.05 bitrate= 269.0kbits/s dup=1 drop=0 speed=5.96x    frame=24141 fps=143 q=32.0 size=   33080kB time=00:16:47.04 bitrate= 269.1kbits/s dup=1 drop=0 speed=5.96x    frame=24232 fps=143 q=32.0 size=   33146kB time=00:16:50.83 bitrate= 268.6kbits/s dup=1 drop=0 speed=5.97x    frame=24268 fps=143 q=32.0 size=   33246kB time=00:16:52.33 bitrate= 269.0kbits/s dup=1 drop=0 speed=5.96x    frame=24344 fps=143 q=32.0 size=   33373kB time=00:16:55.53 bitrate= 269.2kbits/s dup=1 drop=0 speed=5.96x    frame=24445 fps=143 q=32.0 size=   33460kB time=00:16:59.71 bitrate= 268.8kbits/s dup=1 drop=0 speed=5.97x    frame=24507 fps=143 q=32.0 size=   33548kB time=00:17:02.31 bitrate= 268.8kbits/s dup=1 drop=0 speed=5.96x    frame=24570 fps=143 q=32.0 size=   33632kB time=00:17:04.96 bitrate= 268.8kbits/s dup=1 drop=0 speed=5.96x    frame=24631 fps=143 q=32.0 size=   33706kB time=00:17:07.47 bitrate= 268.7kbits/s dup=1 drop=0 speed=5.96x    frame=24693 fps=143 q=32.0 size=   33835kB time=00:17:10.03 bitrate= 269.1kbits/s dup=1 drop=0 speed=5.95x    frame=24762 fps=143 q=32.0 size=   33903kB time=00:17:12.93 bitrate= 268.9kbits/s dup=1 drop=0 speed=5.95x    frame=24815 fps=143 q=32.0 size=   33973kB time=00:17:15.15 bitrate= 268.9kbits/s dup=1 drop=0 speed=5.95x    frame=24894 fps=143 q=32.0 size=   34046kB time=00:17:18.44 bitrate= 268.6kbits/s dup=1 drop=0 speed=5.95x    frame=24974 fps=143 q=32.0 size=   34144kB time=00:17:21.77 bitrate= 268.5kbits/s dup=1 drop=0 speed=5.95x    frame=25069 fps=143 q=32.0 size=   34205kB time=00:17:25.73 bitrate= 268.0kbits/s dup=1 drop=0 speed=5.96x    frame=25172 fps=143 q=32.0 size=   34296kB time=00:17:30.04 bitrate= 267.6kbits/s dup=1 drop=0 speed=5.97x    frame=25263 fps=143 q=32.0 size=   34366kB time=00:17:33.84 bitrate= 267.1kbits/s dup=1 drop=0 speed=5.97x    frame=25337 fps=143 q=32.0 size=   34445kB time=00:17:36.91 bitrate= 267.0kbits/s dup=1 drop=0 speed=5.97x    frame=25417 fps=143 q=32.0 size=   34519kB time=00:17:40.28 bitrate= 266.7kbits/s dup=1 drop=0 speed=5.97x    frame=25464 fps=143 q=32.0 size=   34602kB time=00:17:42.20 bitrate= 266.9kbits/s dup=1 drop=0 speed=5.97x    frame=25527 fps=143 q=32.0 size=   34706kB time=00:17:44.85 bitrate= 267.0kbits/s dup=1 drop=0 speed=5.96x    frame=25632 fps=143 q=32.0 size=   34780kB time=00:17:49.20 bitrate= 266.5kbits/s dup=1 drop=0 speed=5.97x    frame=25733 fps=143 q=32.0 size=   34858kB time=00:17:53.43 bitrate= 266.0kbits/s dup=1 drop=0 speed=5.98x    frame=25816 fps=143 q=32.0 size=   34935kB time=00:17:56.88 bitrate= 265.8kbits/s dup=1 drop=0 speed=5.98x    frame=25857 fps=143 q=32.0 size=   35023kB time=00:17:58.59 bitrate= 266.0kbits/s dup=1 drop=0 speed=5.97x    frame=25899 fps=143 q=32.0 size=   35113kB time=00:18:00.34 bitrate= 266.3kbits/s dup=1 drop=0 speed=5.97x    frame=25961 fps=143 q=32.0 size=   35206kB time=00:18:02.94 bitrate= 266.3kbits/s dup=1 drop=0 speed=5.96x    frame=26017 fps=143 q=32.0 size=   35304kB time=00:18:05.29 bitrate= 266.5kbits/s dup=1 drop=0 speed=5.96x    frame=26076 fps=143 q=32.0 size=   35419kB time=00:18:07.76 bitrate= 266.7kbits/s dup=1 drop=0 speed=5.96x    frame=26116 fps=143 q=32.0 size=   35510kB time=00:18:09.38 bitrate= 267.0kbits/s dup=1 drop=0 speed=5.95x    frame=26216 fps=143 q=32.0 size=   35579kB time=00:18:13.56 bitrate= 266.5kbits/s dup=1 drop=0 speed=5.96x    frame=26292 fps=143 q=32.0 size=   35664kB time=00:18:16.76 bitrate= 266.4kbits/s dup=1 drop=0 speed=5.96x    frame=26358 fps=143 q=32.0 size=   35736kB time=00:18:19.49 bitrate= 266.3kbits/s dup=1 drop=0 speed=5.96x    frame=26409 fps=143 q=32.0 size=   35783kB time=00:18:21.63 bitrate= 266.1kbits/s dup=1 drop=0 speed=5.95x    frame=26501 fps=143 q=32.0 size=   35894kB time=00:18:25.47 bitrate= 266.0kbits/s dup=1 drop=0 speed=5.95x    frame=26555 fps=143 q=32.0 size=   35966kB time=00:18:27.73 bitrate= 266.0kbits/s dup=1 drop=0 speed=5.95x    frame=26601 fps=143 q=32.0 size=   36068kB time=00:18:29.65 bitrate= 266.3kbits/s dup=1 drop=0 speed=5.94x    frame=26674 fps=143 q=32.0 size=   36125kB time=00:18:32.68 bitrate= 266.0kbits/s dup=1 drop=0 speed=5.94x    frame=26738 fps=142 q=32.0 size=   36208kB time=00:18:35.37 bitrate= 265.9kbits/s dup=1 drop=0 speed=5.94x    frame=26822 fps=143 q=32.0 size=   36283kB time=00:18:38.87 bitrate= 265.7kbits/s dup=1 drop=0 speed=5.95x    frame=26916 fps=143 q=32.0 size=   36378kB time=00:18:42.79 bitrate= 265.4kbits/s dup=1 drop=0 speed=5.95x    frame=27000 fps=143 q=32.0 size=   36439kB time=00:18:46.25 bitrate= 265.0kbits/s dup=1 drop=0 speed=5.95x    frame=27085 fps=143 q=32.0 size=   36495kB time=00:18:49.83 bitrate= 264.6kbits/s dup=1 drop=0 speed=5.96x    frame=27166 fps=143 q=32.0 size=   36577kB time=00:18:53.20 bitrate= 264.4kbits/s dup=1 drop=0 speed=5.96x    frame=27263 fps=143 q=32.0 size=   36674kB time=00:18:57.25 bitrate= 264.2kbits/s dup=1 drop=0 speed=5.96x    frame=27362 fps=143 q=32.0 size=   36770kB time=00:19:01.39 bitrate= 263.9kbits/s dup=1 drop=0 speed=5.97x    frame=27456 fps=143 q=32.0 size=   36827kB time=00:19:05.28 bitrate= 263.4kbits/s dup=1 drop=0 speed=5.97x    frame=27498 fps=143 q=32.0 size=   36903kB time=00:19:07.07 bitrate= 263.5kbits/s dup=1 drop=0 speed=5.97x    frame=27550 fps=143 q=32.0 size=   36980kB time=00:19:09.20 bitrate= 263.6kbits/s dup=1 drop=0 speed=5.96x    frame=27618 fps=143 q=32.0 size=   37064kB time=00:19:12.06 bitrate= 263.6kbits/s dup=1 drop=0 speed=5.96x    frame=27670 fps=143 q=32.0 size=   37133kB time=00:19:14.24 bitrate= 263.5kbits/s dup=1 drop=0 speed=5.96x    frame=27732 fps=143 q=32.0 size=   37247kB time=00:19:16.84 bitrate= 263.8kbits/s dup=1 drop=0 speed=5.95x    frame=27776 fps=143 q=32.0 size=   37362kB time=00:19:18.63 bitrate= 264.2kbits/s dup=1 drop=0 speed=5.95x    frame=27827 fps=143 q=32.0 size=   37449kB time=00:19:20.76 bitrate= 264.3kbits/s dup=1 drop=0 speed=5.94x    frame=27882 fps=142 q=32.0 size=   37547kB time=00:19:23.07 bitrate= 264.5kbits/s dup=1 drop=0 speed=5.94x    frame=27982 fps=143 q=32.0 size=   37616kB time=00:19:27.25 bitrate= 264.0kbits/s dup=1 drop=0 speed=5.95x    frame=28055 fps=143 q=32.0 size=   37718kB time=00:19:30.28 bitrate= 264.0kbits/s dup=1 drop=0 speed=5.95x    frame=28111 fps=142 q=32.0 size=   37811kB time=00:19:32.63 bitrate= 264.1kbits/s dup=1 drop=0 speed=5.94x    frame=28208 fps=143 q=32.0 size=   37911kB time=00:19:36.68 bitrate= 263.9kbits/s dup=1 drop=0 speed=5.95x    frame=28316 fps=143 q=32.0 size=   37994kB time=00:19:41.16 bitrate= 263.5kbits/s dup=1 drop=0 speed=5.96x    frame=28383 fps=143 q=32.0 size=   38075kB time=00:19:43.97 bitrate= 263.4kbits/s dup=1 drop=0 speed=5.96x    frame=28461 fps=143 q=32.0 size=   38169kB time=00:19:47.22 bitrate= 263.4kbits/s dup=1 drop=0 speed=5.96x    frame=28539 fps=143 q=32.0 size=   38241kB time=00:19:50.46 bitrate= 263.2kbits/s dup=1 drop=0 speed=5.96x    frame=28622 fps=143 q=32.0 size=   38352kB time=00:19:53.92 bitrate= 263.1kbits/s dup=1 drop=0 speed=5.96x    frame=28716 fps=143 q=32.0 size=   38453kB time=00:19:57.84 bitrate= 263.0kbits/s dup=1 drop=0 speed=5.96x    frame=28792 fps=143 q=32.0 size=   38552kB time=00:20:01.04 bitrate= 263.0kbits/s dup=1 drop=0 speed=5.97x    frame=28879 fps=143 q=32.0 size=   38676kB time=00:20:04.67 bitrate= 263.0kbits/s dup=1 drop=0 speed=5.97x    frame=28947 fps=143 q=32.0 size=   38751kB time=00:20:07.53 bitrate= 262.9kbits/s dup=1 drop=0 speed=5.97x    frame=28999 fps=143 q=32.0 size=   38843kB time=00:20:09.66 bitrate= 263.0kbits/s dup=1 drop=0 speed=5.96x    frame=29054 fps=143 q=32.0 size=   38913kB time=00:20:11.96 bitrate= 263.0kbits/s dup=1 drop=0 speed=5.96x    frame=29109 fps=143 q=32.0 size=   38985kB time=00:20:14.27 bitrate= 263.0kbits/s dup=1 drop=0 speed=5.96x    frame=29160 fps=143 q=32.0 size=   39064kB time=00:20:16.36 bitrate= 263.1kbits/s dup=1 drop=0 speed=5.95x    frame=29216 fps=143 q=32.0 size=   39154kB time=00:20:18.71 bitrate= 263.2kbits/s dup=1 drop=0 speed=5.95x    frame=29270 fps=143 q=32.0 size=   39287kB time=00:20:20.97 bitrate= 263.6kbits/s dup=1 drop=0 speed=5.95x    frame=29360 fps=143 q=32.0 size=   39365kB time=00:20:24.68 bitrate= 263.3kbits/s dup=1 drop=0 speed=5.95x    frame=29423 fps=143 q=32.0 size=   39446kB time=00:20:27.32 bitrate= 263.3kbits/s dup=1 drop=0 speed=5.95x    frame=29488 fps=143 q=32.0 size=   39539kB time=00:20:30.05 bitrate= 263.3kbits/s dup=1 drop=0 speed=5.95x    frame=29562 fps=143 q=32.0 size=   39628kB time=00:20:33.13 bitrate= 263.3kbits/s dup=1 drop=0 speed=5.95x    frame=29645 fps=143 q=32.0 size=   39692kB time=00:20:36.58 bitrate= 262.9kbits/s dup=1 drop=0 speed=5.95x    frame=29717 fps=143 q=32.0 size=   39794kB time=00:20:39.61 bitrate= 263.0kbits/s dup=1 drop=0 speed=5.95x    frame=29790 fps=143 q=32.0 size=   39900kB time=00:20:42.64 bitrate= 263.0kbits/s dup=1 drop=0 speed=5.95x    frame=29859 fps=143 q=32.0 size=   39996kB time=00:20:45.54 bitrate= 263.1kbits/s dup=1 drop=0 speed=5.95x    frame=29963 fps=143 q=32.0 size=   40070kB time=00:20:49.85 bitrate= 262.6kbits/s dup=1 drop=0 speed=5.95x    frame=30079 fps=143 q=32.0 size=   40142kB time=00:20:54.67 bitrate= 262.1kbits/s dup=1 drop=0 speed=5.96x    frame=30142 fps=143 q=32.0 size=   40221kB time=00:20:57.32 bitrate= 262.1kbits/s dup=1 drop=0 speed=5.96x    frame=30240 fps=143 q=32.0 size=   40320kB time=00:21:01.41 bitrate= 261.9kbits/s dup=1 drop=0 speed=5.97x    frame=30364 fps=143 q=32.0 size=   40401kB time=00:21:06.58 bitrate= 261.3kbits/s dup=1 drop=0 speed=5.98x    frame=30478 fps=143 q=32.0 size=   40494kB time=00:21:11.36 bitrate= 260.9kbits/s dup=1 drop=0 speed=5.98x    frame=30576 fps=144 q=32.0 size=   40596kB time=00:21:15.41 bitrate= 260.7kbits/s dup=1 drop=0 speed=5.99x    frame=30681 fps=144 q=32.0 size=   40664kB time=00:21:19.80 bitrate= 260.3kbits/s dup=1 drop=0 speed=   6x    frame=30790 fps=144 q=32.0 size=   40734kB time=00:21:24.37 bitrate= 259.8kbits/s dup=1 drop=0 speed=   6x    frame=30872 fps=144 q=32.0 size=   40810kB time=00:21:27.78 bitrate= 259.6kbits/s dup=1 drop=0 speed=   6x    frame=30944 fps=144 q=32.0 size=   40896kB time=00:21:30.77 bitrate= 259.5kbits/s dup=1 drop=0 speed=   6x    frame=30995 fps=144 q=29.0 size=   41000kB time=00:21:32.90 bitrate= 259.8kbits/s dup=1 drop=0 speed=   6x    frame=31042 fps=144 q=32.0 size=   41080kB time=00:21:34.87 bitrate= 259.9kbits/s dup=1 drop=0 speed=   6x    frame=31090 fps=144 q=32.0 size=   41151kB time=00:21:36.87 bitrate= 259.9kbits/s dup=1 drop=0 speed=5.99x    frame=31147 fps=144 q=32.0 size=   41254kB time=00:21:39.22 bitrate= 260.1kbits/s dup=1 drop=0 speed=5.99x    frame=31196 fps=143 q=32.0 size=   41325kB time=00:21:41.31 bitrate= 260.1kbits/s dup=1 drop=0 speed=5.98x    frame=31253 fps=143 q=32.0 size=   41446kB time=00:21:43.65 bitrate= 260.4kbits/s dup=1 drop=0 speed=5.98x    frame=31295 fps=143 q=32.0 size=   41567kB time=00:21:45.45 bitrate= 260.8kbits/s dup=1 drop=0 speed=5.97x    frame=31342 fps=143 q=32.0 size=   41684kB time=00:21:47.37 bitrate= 261.2kbits/s dup=1 drop=0 speed=5.97x    frame=31392 fps=143 q=32.0 size=   41804kB time=00:21:49.46 bitrate= 261.5kbits/s dup=1 drop=0 speed=5.96x    frame=31440 fps=143 q=32.0 size=   41909kB time=00:21:51.46 bitrate= 261.8kbits/s dup=1 drop=0 speed=5.96x    frame=31495 fps=143 q=32.0 size=   42051kB time=00:21:53.77 bitrate= 262.2kbits/s dup=1 drop=0 speed=5.96x    frame=31536 fps=143 q=32.0 size=   42132kB time=00:21:55.47 bitrate= 262.4kbits/s dup=1 drop=0 speed=5.95x    frame=31567 fps=142 q=32.0 size=   42267kB time=00:21:56.75 bitrate= 263.0kbits/s dup=1 drop=0 speed=5.94x    frame=31592 fps=142 q=32.0 size=   42358kB time=00:21:57.82 bitrate= 263.3kbits/s dup=1 drop=0 speed=5.93x    frame=31635 fps=142 q=32.0 size=   42516kB time=00:21:59.57 bitrate= 263.9kbits/s dup=1 drop=0 speed=5.93x    frame=31673 fps=142 q=32.0 size=   42642kB time=00:22:01.19 bitrate= 264.4kbits/s dup=1 drop=0 speed=5.92x    frame=31712 fps=142 q=32.0 size=   42775kB time=00:22:02.81 bitrate= 264.9kbits/s dup=1 drop=0 speed=5.91x    frame=31757 fps=142 q=32.0 size=   42920kB time=00:22:04.69 bitrate= 265.4kbits/s dup=1 drop=0 speed=5.91x    frame=31798 fps=142 q=32.0 size=   43030kB time=00:22:06.40 bitrate= 265.8kbits/s dup=1 drop=0 speed= 5.9x    frame=31835 fps=141 q=32.0 size=   43138kB time=00:22:07.93 bitrate= 266.1kbits/s dup=1 drop=0 speed= 5.9x    frame=31882 fps=141 q=32.0 size=   43248kB time=00:22:09.89 bitrate= 266.4kbits/s dup=1 drop=0 speed=5.89x    frame=31941 fps=141 q=32.0 size=   43395kB time=00:22:12.37 bitrate= 266.8kbits/s dup=1 drop=0 speed=5.89x    frame=31994 fps=141 q=32.0 size=   43493kB time=00:22:14.55 bitrate= 267.0kbits/s dup=1 drop=0 speed=5.89x    frame=32058 fps=141 q=32.0 size=   43586kB time=00:22:17.23 bitrate= 267.0kbits/s dup=1 drop=0 speed=5.88x    frame=32100 fps=141 q=32.0 size=   43675kB time=00:22:18.98 bitrate= 267.2kbits/s dup=1 drop=0 speed=5.88x    frame=32143 fps=141 q=32.0 size=   43738kB time=00:22:20.77 bitrate= 267.2kbits/s dup=1 drop=0 speed=5.87x    frame=32181 fps=141 q=32.0 size=   43828kB time=00:22:22.35 bitrate= 267.5kbits/s dup=1 drop=0 speed=5.87x    frame=32228 fps=141 q=32.0 size=   43914kB time=00:22:24.32 bitrate= 267.6kbits/s dup=1 drop=0 speed=5.86x    frame=32275 fps=140 q=32.0 size=   44007kB time=00:22:26.28 bitrate= 267.8kbits/s dup=1 drop=0 speed=5.86x    frame=32325 fps=140 q=32.0 size=   44098kB time=00:22:28.37 bitrate= 267.9kbits/s dup=1 drop=0 speed=5.85x    frame=32383 fps=140 q=32.0 size=   44227kB time=00:22:30.80 bitrate= 268.2kbits/s dup=1 drop=0 speed=5.85x    frame=32434 fps=140 q=32.0 size=   44392kB time=00:22:32.93 bitrate= 268.8kbits/s dup=1 drop=0 speed=5.85x    frame=32492 fps=140 q=32.0 size=   44488kB time=00:22:35.37 bitrate= 268.9kbits/s dup=1 drop=0 speed=5.84x    frame=32543 fps=140 q=32.0 size=   44632kB time=00:22:37.46 bitrate= 269.3kbits/s dup=1 drop=0 speed=5.84x    frame=32586 fps=140 q=32.0 size=   44781kB time=00:22:39.25 bitrate= 269.9kbits/s dup=1 drop=0 speed=5.83x    frame=32632 fps=140 q=32.0 size=   44914kB time=00:22:41.17 bitrate= 270.3kbits/s dup=1 drop=0 speed=5.83x    frame=32693 fps=140 q=32.0 size=   45028kB time=00:22:43.73 bitrate= 270.5kbits/s dup=1 drop=0 speed=5.83x    frame=32729 fps=140 q=32.0 size=   45162kB time=00:22:45.22 bitrate= 271.0kbits/s dup=1 drop=0 speed=5.82x    frame=32786 fps=139 q=32.0 size=   45323kB time=00:22:47.61 bitrate= 271.5kbits/s dup=1 drop=0 speed=5.82x    frame=32845 fps=139 q=32.0 size=   45453kB time=00:22:50.04 bitrate= 271.8kbits/s dup=1 drop=0 speed=5.81x    frame=32914 fps=139 q=32.0 size=   45576kB time=00:22:52.95 bitrate= 271.9kbits/s dup=1 drop=0 speed=5.81x    frame=33002 fps=139 q=32.0 size=   45687kB time=00:22:56.57 bitrate= 271.9kbits/s dup=1 drop=0 speed=5.82x    frame=33064 fps=139 q=32.0 size=   45789kB time=00:22:59.22 bitrate= 272.0kbits/s dup=1 drop=0 speed=5.82x    frame=33142 fps=139 q=32.0 size=   45886kB time=00:23:02.46 bitrate= 271.9kbits/s dup=1 drop=0 speed=5.82x    frame=33277 fps=140 q=32.0 size=   46003kB time=00:23:08.09 bitrate= 271.5kbits/s dup=1 drop=0 speed=5.83x    frame=33365 fps=140 q=32.0 size=   46105kB time=00:23:11.76 bitrate= 271.4kbits/s dup=1 drop=0 speed=5.83x    frame=33417 fps=140 q=32.0 size=   46216kB time=00:23:13.89 bitrate= 271.6kbits/s dup=1 drop=0 speed=5.83x    frame=33480 fps=140 q=32.0 size=   46286kB time=00:23:16.54 bitrate= 271.5kbits/s dup=1 drop=0 speed=5.83x    frame=33552 fps=140 q=32.0 size=   46382kB time=00:23:19.57 bitrate= 271.5kbits/s dup=1 drop=0 speed=5.83x    frame=33623 fps=140 q=32.0 size=   46457kB time=00:23:22.51 bitrate= 271.4kbits/s dup=1 drop=0 speed=5.83x    frame=33700 fps=140 q=32.0 size=   46561kB time=00:23:25.71 bitrate= 271.3kbits/s dup=1 drop=0 speed=5.83x    frame=33784 fps=140 q=32.0 size=   46655kB time=00:23:29.21 bitrate= 271.2kbits/s dup=1 drop=0 speed=5.83x    frame=33877 fps=140 q=32.0 size=   46723kB time=00:23:33.09 bitrate= 270.9kbits/s dup=1 drop=0 speed=5.83x    frame=33964 fps=140 q=32.0 size=   46831kB time=00:23:36.72 bitrate= 270.8kbits/s dup=1 drop=0 speed=5.84x    frame=34031 fps=140 q=32.0 size=   46940kB time=00:23:39.54 bitrate= 270.9kbits/s dup=1 drop=0 speed=5.84x    frame=34081 fps=140 q=32.0 size=   47037kB time=00:23:41.63 bitrate= 271.0kbits/s dup=1 drop=0 speed=5.83x    frame=34131 fps=140 q=32.0 size=   47137kB time=00:23:43.72 bitrate= 271.2kbits/s dup=1 drop=0 speed=5.83x    frame=34195 fps=140 q=32.0 size=   47238kB time=00:23:46.36 bitrate= 271.3kbits/s dup=1 drop=0 speed=5.83x    frame=34251 fps=140 q=32.0 size=   47320kB time=00:23:48.71 bitrate= 271.3kbits/s dup=1 drop=0 speed=5.83x    frame=34300 fps=140 q=32.0 size=   47445kB time=00:23:50.76 bitrate= 271.7kbits/s dup=1 drop=0 speed=5.82x    frame=34338 fps=139 q=32.0 size=   47583kB time=00:23:52.34 bitrate= 272.1kbits/s dup=1 drop=0 speed=5.82x    frame=34375 fps=139 q=32.0 size=   47703kB time=00:23:53.87 bitrate= 272.5kbits/s dup=1 drop=0 speed=5.81x    frame=34430 fps=139 q=32.0 size=   47828kB time=00:23:56.18 bitrate= 272.8kbits/s dup=1 drop=0 speed=5.81x    frame=34493 fps=139 q=32.0 size=   47924kB time=00:23:58.78 bitrate= 272.9kbits/s dup=1 drop=0 speed=5.81x    frame=34586 fps=139 q=32.0 size=   48009kB time=00:24:02.66 bitrate= 272.6kbits/s dup=1 drop=0 speed=5.81x    frame=34671 fps=139 q=32.0 size=   48127kB time=00:24:06.25 bitrate= 272.6kbits/s dup=1 drop=0 speed=5.81x    frame=34731 fps=139 q=32.0 size=   48183kB time=00:24:08.72 bitrate= 272.5kbits/s dup=1 drop=0 speed=5.81x    frame=34792 fps=139 q=32.0 size=   48308kB time=00:24:11.28 bitrate= 272.7kbits/s dup=1 drop=0 speed=5.81x    frame=34912 fps=139 q=32.0 size=   48414kB time=00:24:16.27 bitrate= 272.3kbits/s dup=1 drop=0 speed=5.81x    frame=35075 fps=140 q=32.0 size=   48505kB time=00:24:23.06 bitrate= 271.6kbits/s dup=1 drop=0 speed=5.83x    [mp4 @ 0x23e8ec0] Starting second pass: moving the moov atom to the beginning of the file
frame=35140 fps=140 q=-1.0 Lsize=   49416kB time=00:24:25.62 bitrate= 276.2kbits/s dup=1 drop=0 speed=5.83x    
video:38992kB audio:9590kB subtitle:0kB other streams:0kB global headers:0kB muxing overhead: 1.715431%
[libx264 @ 0x2459c20] frame I:343   Avg QP:21.46  size: 15598
[libx264 @ 0x2459c20] frame P:10627 Avg QP:24.98  size:  2503
[libx264 @ 0x2459c20] frame B:24170 Avg QP:28.83  size:   330
[libx264 @ 0x2459c20] consecutive B-frames:  3.2%  7.0% 24.4% 65.3%
[libx264 @ 0x2459c20] mb I  I16..4: 23.3% 54.0% 22.6%
[libx264 @ 0x2459c20] mb P  I16..4:  4.4%  4.2%  1.1%  P16..4: 29.5%  4.3%  3.4%  0.2%  0.0%    skip:52.9%
[libx264 @ 0x2459c20] mb B  I16..4:  0.2%  0.2%  0.1%  B16..8: 14.6%  0.9%  0.1%  direct: 0.2%  skip:83.8%  L0:40.1% L1:57.7% BI: 2.2%
[libx264 @ 0x2459c20] 8x8 transform intra:45.4% inter:52.6%
[libx264 @ 0x2459c20] coded y,uvDC,uvAC intra: 30.5% 52.8% 8.6% inter: 1.6% 3.0% 0.0%
[libx264 @ 0x2459c20] i16 v,h,dc,p: 40% 31% 20%  9%
[libx264 @ 0x2459c20] i8 v,h,dc,ddl,ddr,vr,hd,vl,hu: 23% 21% 41%  3%  2%  2%  2%  2%  3%
[libx264 @ 0x2459c20] i4 v,h,dc,ddl,ddr,vr,hd,vl,hu: 31% 19% 20%  5%  5%  6%  5%  5%  4%
[libx264 @ 0x2459c20] i8c dc,h,v,p: 46% 25% 24%  5%
[libx264 @ 0x2459c20] Weighted P-Frames: Y:1.4% UV:1.0%
[libx264 @ 0x2459c20] ref P L0: 62.4%  9.3% 12.5%  4.4%  3.4%  3.1%  2.7%  1.7%  0.5%  0.0%
[libx264 @ 0x2459c20] ref B L0: 80.8%  8.8%  4.6%  1.8%  1.6%  1.4%  0.9%
[libx264 @ 0x2459c20] ref B L1: 92.8%  7.2%
[libx264 @ 0x2459c20] kb/s:217.94
